<svg width="1280" height="420" viewBox="0 0 1280 420" fill="none"
     xmlns="http://www.w3.org/2000/svg" role="img"
     aria-label="Bootstrap Data — Own your first-party data. Govern it by default. Activate it everywhere.">
  <defs>
    <linearGradient id="bg" x1="0" y1="0" x2="1280" y2="420" gradientUnits="userSpaceOnUse">
      <stop stop-color="#1A1230"/>
      <stop offset="0.5" stop-color="#120C24"/>
      <stop offset="1" stop-color="#0C0819"/>
    </linearGradient>
    <linearGradient id="brand" x1="0" y1="0" x2="1" y2="1">
      <stop stop-color="#7C3AED"/>
      <stop offset="1" stop-color="#A855F7"/>
    </linearGradient>
    <linearGradient id="line" x1="140" y1="0" x2="1140" y2="0" gradientUnits="userSpaceOnUse">
      <stop stop-color="#7C3AED" stop-opacity="0.25"/>
      <stop offset="0.5" stop-color="#A855F7" stop-opacity="0.9"/>
      <stop offset="1" stop-color="#22D3EE" stop-opacity="0.5"/>
    </linearGradient>
    <radialGradient id="halo" cx="0.5" cy="0.5" r="0.5">
      <stop stop-color="#A855F7" stop-opacity="0.35"/>
      <stop offset="1" stop-color="#A855F7" stop-opacity="0"/>
    </radialGradient>
    <filter id="glow" x="-60%" y="-60%" width="220%" height="220%">
      <feGaussianBlur stdDeviation="4" result="b"/>
      <feMerge><feMergeNode in="b"/><feMergeNode in="SourceGraphic"/></feMerge>
    </filter>
    <filter id="softglow" x="-80%" y="-80%" width="260%" height="260%">
      <feGaussianBlur stdDeviation="8"/>
    </filter>
  </defs>

  <!-- backdrop -->
  <rect width="1280" height="420" rx="24" fill="url(#bg)"/>
  <ellipse cx="640" cy="150" rx="520" ry="180" fill="url(#halo)"/>

  <!-- drifting ambient particles -->
  <g fill="#A855F7" opacity="0.35">
    <circle cx="120" cy="70" r="2"><animate attributeName="cy" values="70;60;70" dur="6s" repeatCount="indefinite"/></circle>
    <circle cx="1180" cy="90" r="2.5"><animate attributeName="cy" values="90;104;90" dur="7s" repeatCount="indefinite"/></circle>
    <circle cx="260" cy="120" r="1.6"><animate attributeName="opacity" values="0.1;0.6;0.1" dur="5s" repeatCount="indefinite"/></circle>
    <circle cx="1040" cy="60" r="1.6"><animate attributeName="opacity" values="0.5;0.1;0.5" dur="4.5s" repeatCount="indefinite"/></circle>
  </g>

  <!-- logo mark -->
  <g transform="translate(516 46)">
    <rect width="56" height="56" rx="15" fill="url(#brand)" filter="url(#glow)"/>
    <g fill="#FFFFFF" transform="translate(-4 -4)">
      <ellipse cx="32" cy="20" rx="13" ry="5"/>
      <path opacity="0.78" d="M19 20v8.5c0 2.76 5.82 5 13 5s13-2.24 13-5V20c0 2.76-5.82 5-13 5s-13-2.24-13-5Z"/>
      <path opacity="0.56" d="M19 32v8.5c0 2.76 5.82 5 13 5s13-2.24 13-5V32c0 2.76-5.82 5-13 5s-13-2.24-13-5Z"/>
    </g>
  </g>

  <!-- wordmark -->
  <text x="640" y="162" text-anchor="middle"
        font-family="'Segoe UI', Inter, system-ui, -apple-system, sans-serif"
        font-size="58" font-weight="800" letter-spacing="-1.5" fill="#F4F2FB">Bootstrap<tspan fill="url(#brand)"> Data</tspan>
    <animate attributeName="opacity" from="0" to="1" dur="1s" fill="freeze"/>
  </text>

  <!-- tagline -->
  <text x="640" y="204" text-anchor="middle"
        font-family="'Segoe UI', Inter, system-ui, -apple-system, sans-serif"
        font-size="21" font-weight="500" letter-spacing="0.3" fill="#C9C2E0">
    Own your first-party data. <tspan fill="#C4B5FD" font-weight="700">Govern it by default.</tspan> Activate it everywhere.
    <animate attributeName="opacity" from="0" to="1" dur="1.4s" begin="0.3s" fill="freeze"/>
  </text>

  <!-- ===== pipeline ===== -->
  <g>
    <!-- rail -->
    <line x1="150" y1="300" x2="1130" y2="300" stroke="url(#line)" stroke-width="3" stroke-linecap="round"/>

    <!-- flowing dash energy on the rail -->
    <line x1="150" y1="300" x2="1130" y2="300" stroke="#A855F7" stroke-width="3" stroke-linecap="round"
          stroke-dasharray="2 22" opacity="0.9">
      <animate attributeName="stroke-dashoffset" from="0" to="-24" dur="0.7s" repeatCount="indefinite"/>
    </line>

    <!-- allowed particles (violet / teal) travelling the whole rail -->
    <g filter="url(#glow)">
      <circle r="5.5" fill="#22D3EE"><animateMotion dur="4.4s" begin="0s"   repeatCount="indefinite" path="M150 300 L1130 300"/></circle>
      <circle r="5"   fill="#A855F7"><animateMotion dur="4.4s" begin="0.7s" repeatCount="indefinite" path="M150 300 L1130 300"/></circle>
      <circle r="6"   fill="#8B5CF6"><animateMotion dur="4.4s" begin="1.5s" repeatCount="indefinite" path="M150 300 L1130 300"/></circle>
      <circle r="4.5" fill="#22D3EE"><animateMotion dur="4.4s" begin="2.3s" repeatCount="indefinite" path="M150 300 L1130 300"/></circle>
      <circle r="5.5" fill="#A855F7"><animateMotion dur="4.4s" begin="3.1s" repeatCount="indefinite" path="M150 300 L1130 300"/></circle>
    </g>

    <!-- a PII particle: flagged red at the GOVERN gate, then blocked (fades out) -->
    <circle r="6" fill="#22D3EE" filter="url(#glow)">
      <animateMotion dur="4.4s" begin="1.1s" repeatCount="indefinite"
                     keyPoints="0;0.34;0.34" keyTimes="0;0.34;1" calcMode="linear"
                     path="M150 300 L1130 300"/>
      <animate attributeName="fill" values="#22D3EE;#22D3EE;#F43F5E;#F43F5E" keyTimes="0;0.30;0.34;1" dur="4.4s" begin="1.1s" repeatCount="indefinite"/>
      <animate attributeName="opacity" values="1;1;1;0;0" keyTimes="0;0.34;0.40;0.46;1" dur="4.4s" begin="1.1s" repeatCount="indefinite"/>
      <animate attributeName="r" values="6;6;9;2;2" keyTimes="0;0.34;0.40;0.46;1" dur="4.4s" begin="1.1s" repeatCount="indefinite"/>
    </circle>

    <!-- nodes -->
    <!-- INGEST -->
    <g transform="translate(150 300)">
      <circle r="16" fill="#1A1230" stroke="url(#brand)" stroke-width="2.5"/>
      <circle r="7" fill="url(#brand)"><animate attributeName="r" values="7;9;7" dur="2.2s" repeatCount="indefinite"/></circle>
    </g>
    <!-- GOVERN (shield gate) -->
    <g transform="translate(477 300)">
      <circle r="28" fill="#A855F7" opacity="0.12" filter="url(#softglow)"/>
      <circle r="20" fill="#1A1230" stroke="#C4B5FD" stroke-width="2.5"/>
      <path d="M0 -11 L9 -7 V1 C9 7 5 10 0 12 C-5 10 -9 7 -9 1 V-7 Z"
            fill="url(#brand)" stroke="#F4F2FB" stroke-width="1"/>
      <path d="M-3.5 0.5 L-1 3 L4 -3.5" fill="none" stroke="#FFFFFF" stroke-width="2" stroke-linecap="round" stroke-linejoin="round"/>
      <animateTransform attributeName="transform" type="scale" additive="sum" values="1;1.06;1" dur="2.4s" repeatCount="indefinite"/>
    </g>
    <!-- STORE -->
    <g transform="translate(803 300)">
      <circle r="16" fill="#1A1230" stroke="url(#brand)" stroke-width="2.5"/>
      <g stroke="#C4B5FD" stroke-width="1.6" fill="none">
        <ellipse cx="0" cy="-5" rx="8" ry="3"/>
        <path d="M-8 -5 V5 C-8 6.7 -4 8 0 8 C4 8 8 6.7 8 5 V-5"/>
        <path d="M-8 0 C-8 1.7 -4 3 0 3 C4 3 8 1.7 8 0"/>
      </g>
    </g>
    <!-- ACTIVATE -->
    <g transform="translate(1130 300)">
      <circle r="16" fill="#1A1230" stroke="url(#brand)" stroke-width="2.5"/>
      <path d="M-2 -8 L-7 1 H-1 L-3 8 L7 -2 H0 L2 -8 Z" fill="url(#brand)" stroke="#FFFFFF" stroke-width="0.8" stroke-linejoin="round">
        <animate attributeName="opacity" values="0.7;1;0.7" dur="1.6s" repeatCount="indefinite"/>
      </path>
    </g>

    <!-- labels -->
    <g font-family="'Segoe UI', Inter, system-ui, sans-serif" font-size="14" font-weight="700" letter-spacing="1.5" text-anchor="middle">
      <text x="150"  y="348" fill="#C9C2E0">INGEST</text>
      <text x="477"  y="352" fill="#F4F2FB">GOVERN</text>
      <text x="803"  y="348" fill="#C9C2E0">STORE</text>
      <text x="1130" y="348" fill="#C9C2E0">ACTIVATE</text>
    </g>
    <g font-family="'Segoe UI', Inter, system-ui, sans-serif" font-size="11" font-weight="500" text-anchor="middle" fill="#8B82A8">
      <text x="150"  y="368">sources</text>
      <text x="477"  y="372">policy · consent</text>
      <text x="803"  y="368">lakes · warehouses</text>
      <text x="1130" y="368">destinations</text>
    </g>
  </g>
</svg>
