<svg width="64" height="64" viewBox="0 0 64 64" fill="none" xmlns="http://www.w3.org/2000/svg" role="img" aria-label="Bootstrap Data">
  <defs>
    <linearGradient id="bdMark" x1="6" y1="4" x2="58" y2="60" gradientUnits="userSpaceOnUse">
      <stop stop-color="#7C3AED"/>
      <stop offset="1" stop-color="#A855F7"/>
    </linearGradient>
  </defs>
  <rect x="2" y="2" width="60" height="60" rx="16" fill="url(#bdMark)"/>
  <g fill="#FFFFFF">
    <ellipse cx="32" cy="19" rx="14" ry="5.5"/>
    <path d="M18 19v9c0 3.04 6.27 5.5 14 5.5s14-2.46 14-5.5v-9c0 3.04-6.27 5.5-14 5.5s-14-2.46-14-5.5Z" opacity="0.78"/>
    <path d="M18 32v9c0 3.04 6.27 5.5 14 5.5s14-2.46 14-5.5v-9c0 3.04-6.27 5.5-14 5.5s-14-2.46-14-5.5Z" opacity="0.56"/>
  </g>
</svg>
