<svg width="248" height="56" viewBox="0 0 248 56"
     xmlns="http://www.w3.org/2000/svg" fill="none"
     role="img" aria-label="Bootstrap Data">
  <defs>
    <linearGradient id="bdLogo" x1="2" y1="2" x2="54" y2="54"
                    gradientUnits="userSpaceOnUse">
      <stop stop-color="#7C3AED"/>
      <stop offset="1" stop-color="#A855F7"/>
    </linearGradient>
  </defs>
  <rect width="56" height="56" rx="15" fill="url(#bdLogo)"/>
  <g fill="#FFFFFF" transform="translate(-4 -4)">
    <ellipse cx="32" cy="20" rx="13" ry="5"/>
    <path opacity="0.78" d="M19 20v8.5c0 2.76 5.82 5 13 5s13-2.24 13-5V20c0 2.76-5.82 5-13 5s-13-2.24-13-5Z"/>
    <path opacity="0.56" d="M19 32v8.5c0 2.76 5.82 5 13 5s13-2.24 13-5V32c0 2.76-5.82 5-13 5s-13-2.24-13-5Z"/>
  </g>
  <text x="72" y="35" font-size="24" font-weight="700"
        font-family="Inter, sans-serif" letter-spacing="-0.4"
        fill="#F4F2FB">Bootstrap<tspan font-weight="500"
        fill="#C4B5FD"> Data</tspan></text>
</svg>
